<svg width="240" height="258" viewBox="0 0 240 258" fill="none" xmlns="http://www.w3.org/2000/svg">
<path d="M60.2381 42.8545C59.3347 42.854 58.4541 43.1464 57.7211 43.691C56.9881 44.2356 56.4397 45.0044 56.1539 45.8884L51.7839 59.4125C50.0196 60.0534 48.2938 60.7881 46.6072 61.6232L34.2454 55.2512C33.4376 54.8348 32.5233 54.6913 31.6319 54.8406C30.7405 54.99 29.9173 55.4249 29.2788 56.0837L17.1102 68.6366C16.4716 69.2953 16.05 70.1448 15.9052 71.0643C15.7604 71.9839 15.8998 72.927 16.3034 73.7604L22.4718 86.4868C21.6604 88.2354 20.9423 90.0238 20.3204 91.8532L7.22743 96.3611C6.37051 96.656 5.6253 97.2217 5.09739 97.9779C4.56948 98.7341 4.28565 99.6422 4.28613 100.574V118.329C4.28565 119.261 4.56948 120.17 5.09739 120.926C5.6253 121.682 6.37051 122.248 7.22743 122.543L20.3624 127.059C20.9815 128.868 21.6924 130.635 22.497 132.365L16.3034 145.143C15.8998 145.977 15.7605 146.92 15.9053 147.839C16.0501 148.759 16.4716 149.608 17.1102 150.267L29.2788 162.829C29.9173 163.487 30.7405 163.922 31.6319 164.071C32.5233 164.221 33.4376 164.077 34.2454 163.661L46.6072 157.28C48.2921 158.11 50.0134 158.844 51.7755 159.482L56.1539 173.023C56.4397 173.907 56.9881 174.676 57.7211 175.221C58.4541 175.765 59.3347 176.058 60.2381 176.058H77.4489C78.3522 176.058 79.2328 175.765 79.9659 175.221C80.6989 174.676 81.2472 173.907 81.5331 173.023L85.9114 159.456C87.6604 158.82 89.3735 158.089 91.0461 157.263L103.442 163.661C104.249 164.077 105.164 164.221 106.055 164.071C106.946 163.922 107.77 163.487 108.408 162.829L120.577 150.267C121.215 149.608 121.637 148.759 121.782 147.839C121.926 146.92 121.787 145.977 121.383 145.143L115.207 132.399C116.016 130.657 116.728 128.873 117.35 127.05L130.46 122.543C131.316 122.248 132.062 121.682 132.59 120.926C133.117 120.17 133.401 119.261 133.401 118.329V100.575C133.401 99.6427 133.117 98.7341 132.59 97.9779C132.062 97.2217 131.316 96.656 130.46 96.3611L117.341 91.8532C116.72 90.0361 116.007 88.2586 115.198 86.5216L121.383 73.7604C121.787 72.927 121.926 71.9839 121.782 71.0643C121.637 70.1448 121.215 69.2953 120.577 68.6366L108.408 56.0837C107.77 55.4249 106.946 54.99 106.055 54.8406C105.164 54.6913 104.249 54.8353 103.442 55.2518L91.1133 61.6063C89.4127 60.7675 87.6738 60.0293 85.8946 59.3869L81.5331 45.8889C81.2472 45.0049 80.6989 44.2357 79.9659 43.691C79.2328 43.1464 78.3522 42.854 77.4489 42.8545H60.2381ZM63.339 51.7315H74.3479L78.3397 64.0939C78.5585 64.7713 78.9324 65.3847 79.4298 65.8812C79.9273 66.3777 80.5334 66.7428 81.1969 66.9461C83.9973 67.805 86.7071 68.9539 89.2813 70.3793C89.8877 70.7165 90.5637 70.8986 91.2525 70.9102C91.9412 70.9219 92.6227 70.7629 93.2395 70.4464L104.517 64.6294L112.299 72.6571L106.635 84.3432C106.326 84.9801 106.17 85.6845 106.18 86.3967C106.19 87.1089 106.367 87.8082 106.694 88.4354C108.072 91.0734 109.194 93.8445 110.03 96.7144C110.228 97.3963 110.581 98.0193 111.061 98.5308C111.54 99.0423 112.132 99.4275 112.787 99.6536L124.795 103.78V115.136L112.795 119.263C112.141 119.489 111.549 119.874 111.069 120.386C110.589 120.897 110.236 121.52 110.039 122.202C109.203 125.078 108.082 127.856 106.702 130.498C106.375 131.126 106.199 131.825 106.188 132.537C106.178 133.249 106.334 133.954 106.643 134.591L112.299 146.259L104.517 154.296L93.1638 148.435C92.5459 148.117 91.863 147.958 91.1726 147.969C90.4822 147.981 89.8047 148.164 89.1973 148.502C86.6493 149.917 83.9763 151.067 81.2053 151.927C80.5443 152.131 79.9404 152.495 79.4446 152.99C78.9488 153.485 78.5756 154.095 78.3565 154.77L74.3479 167.194H63.339L59.3305 154.788C59.1125 154.111 58.7398 153.499 58.2439 153.002C57.748 152.506 57.1436 152.14 56.4816 151.936C53.7001 151.078 51.0054 149.936 48.4477 148.52C47.8413 148.183 47.1653 148 46.4765 147.989C45.7877 147.977 45.1063 148.136 44.4895 148.453L33.1697 154.296L25.3879 146.259L31.0604 134.556C31.3695 133.919 31.5255 133.215 31.5153 132.502C31.505 131.79 31.3288 131.091 31.0015 130.464C29.627 127.833 28.509 125.064 27.6736 122.202C27.475 121.522 27.121 120.901 26.6414 120.391C26.1617 119.881 25.5704 119.497 24.9172 119.272L12.8915 115.136V103.78L24.8836 99.6536C25.5393 99.4287 26.1329 99.0439 26.6142 98.5324C27.0954 98.0208 27.4502 97.3973 27.6484 96.7144C28.4829 93.8336 29.5959 91.0485 30.9763 88.4005C31.3036 87.7734 31.4799 87.0741 31.4901 86.3619C31.5003 85.6497 31.3443 84.9453 31.0352 84.3084L25.3879 72.6571L33.1697 64.6294L44.4895 70.4638C45.1074 70.7817 45.7903 70.9414 46.4807 70.9297C47.1711 70.918 47.8486 70.7354 48.4561 70.3967C51.0156 68.9741 53.7053 67.8171 56.49 66.9548C57.1511 66.7511 57.7549 66.3868 58.2507 65.8919C58.7466 65.3971 59.1198 64.7862 59.3389 64.1113L63.339 51.7315Z" fill="#006CDC" stroke="#006CDC" stroke-width="0.00799685" stroke-linecap="round" stroke-linejoin="round"/>
<path d="M68.8287 78.3555C52.2455 78.3555 38.7183 92.3428 38.7183 109.45C38.7183 126.558 52.2455 140.512 68.8287 140.512C85.412 140.512 98.9709 126.558 98.9709 109.45C98.9709 92.3428 85.412 78.3555 68.8287 78.3555ZM68.8287 87.235C80.7612 87.235 90.3634 97.1406 90.3634 109.45C90.3634 121.76 80.7612 131.633 68.8287 131.633C56.8962 131.633 47.3258 121.76 47.3258 109.45C47.3258 97.1406 56.8962 87.235 68.8287 87.235Z" fill="#006CDC" stroke="#006CDC" stroke-width="0.00799685" stroke-linecap="round" stroke-linejoin="round"/>
<path d="M31.8452 106.6C31.8452 108.891 31.8452 111.181 31.8452 113.472C31.8452 118.443 32.1694 103.473 33.2694 98.6333C33.3407 98.3195 34.3978 94.3066 33.7758 95.9235C32.4145 99.4624 31.5797 103.326 30.5951 106.991C29.9017 109.573 28.8543 113.606 29.6298 116.362C30.1058 118.053 30.441 119.784 30.9907 121.455C31.7917 123.89 31.568 120.945 31.5445 119.953C31.4233 114.823 30.5086 109.786 30.0254 104.69C29.9619 104.021 29.5665 100.684 29.5665 100.788C29.5665 105.394 30.6781 110.19 32.13 114.517C32.9168 116.862 34.244 119.549 34.6778 122.01C34.761 122.482 34.9784 122.858 34.9784 123.349C34.9784 124.616 35.1813 121.25 35.2 120.998C35.4022 118.26 34.9784 115.585 34.9784 112.917C34.9784 110.428 35.2633 108.005 35.2633 105.49C35.2633 104.412 35.2633 103.335 35.2633 102.257C35.2633 100.79 35.2633 100.744 35.2633 102.372C35.2633 105.522 35.2633 108.673 35.2633 111.823C35.2633 112.368 35.2633 114 35.2633 113.456C35.2633 111.437 35.3558 109.493 35.6905 107.498C36.0785 105.185 36.4155 103.067 37.1147 100.902C38.2158 97.4948 38.8146 93.8639 40.8176 90.8792C41.6582 89.6267 42.8355 88.4464 43.5869 87.2062C43.6774 87.0568 44.4412 86.5022 44.5996 86.6838C45.0078 87.1516 44.1379 88.7683 43.935 89.2468C41.4374 95.1362 36.9723 99.8372 36.9723 106.6C36.9723 109.545 39.4906 118.067 38.5547 115.284C38.2683 114.433 37.7948 113.669 37.4787 112.836C37.3586 112.519 37.7809 114.981 37.8268 115.431C38.2079 119.165 39.2646 122.698 40.2479 126.287C41.6966 131.575 45.0799 137.326 48.5083 141.387C50.6928 143.975 53.3096 146.677 56.0565 148.619C57.1824 149.415 58.6492 150.676 60.0442 150.676" stroke="#006CDC" stroke-width="5" stroke-linecap="round"/>
<path d="M40.3901 124.23C41.5084 126.328 43.4471 127.322 45.0109 128.997C46.1805 130.25 47.3638 131.711 48.4289 133.045C50.5155 135.659 57.6809 142.655 55.36 140.261C53.3206 138.157 51.8263 134.82 48.9986 133.698C47.8128 133.228 47.4305 133.364 48.0808 134.874C48.8919 136.756 51.103 139.528 52.9863 140.391C53.6942 140.716 56.6627 142.666 57.1956 141.567" stroke="#006CDC" stroke-width="5" stroke-linecap="round"/>
<path d="M28.9966 121.879C29.0888 122.831 29.7989 123.829 30.1992 124.655C31.1277 126.57 32.0156 128.508 33.2059 130.27C33.9295 131.342 34.8461 132.253 35.5479 133.339C36.0603 134.132 36.308 135.059 36.8296 135.837C37.747 137.204 36.8889 134.655 36.7505 134.155C36.5812 133.544 36.6992 132.827 36.6239 132.196C36.363 130.014 35.8616 127.896 35.4213 125.748C35.36 125.449 34.4108 121.525 34.7092 123.218C35.2251 126.145 36.3558 128.968 37.1936 131.805C38.1878 135.171 39.342 138.476 41.2446 141.42C41.6508 142.048 42.3683 143.909 42.9537 144.211" stroke="#006CDC" stroke-width="10" stroke-linecap="round"/>
<path d="M33.8388 135.984C33.7826 135.578 32.5021 137.634 32.4146 138.04C32.2305 138.895 31.9787 139.364 31.6233 140.097C31.107 141.163 30.6223 142.141 29.851 143.036C29.2749 143.704 29.0018 146.437 29.6295 147.084C30.4854 147.967 31.784 148.747 32.8418 149.353C35.3816 150.809 38.3749 148.239 40.5325 147.003C43.6124 145.237 48.1395 145.68 51.562 145.68C54.1716 145.68 57.8676 146.059 59.9806 147.802C61.7084 149.228 62.6335 152.047 63.462 154.136C64.1446 155.858 65.0918 157.287 65.4717 159.05C66.0045 161.523 67.8536 163.83 70.2981 162.495C71.4936 161.842 71.8791 160.282 73.1465 159.556C74.3352 158.875 77.103 155.742 77.4032 154.349C77.8148 152.438 78.3359 151.493 79.8402 149.941C82.8395 146.847 87.5597 144.245 91.5028 142.889C92.719 142.471 102.097 139.719 100.997 143.689C100.247 146.396 99.0463 145.939 96.7881 145.68C96.1914 145.612 95.7023 145.135 95.2373 144.815C94.6464 144.409 96.3922 145.701 97.0571 145.958C99.7085 146.984 101.923 148.681 104.764 147.378C105.97 146.825 107.826 142.979 107.264 144.211C106.528 145.824 105.914 147.138 104.637 148.455C104.51 148.586 103.43 149.496 103.688 149.729C104.169 150.163 106.546 144.261 106.821 143.623C107.306 142.497 107.334 139.645 106.9 138.481C106.273 136.799 104.313 136.553 103.624 134.955C102.799 133.039 103.055 131.024 103.055 128.931C103.055 126.872 103.649 126.181 104.542 124.524C105.279 123.156 105.88 121.766 106.204 120.263C106.555 118.631 107.366 116.904 107.026 115.154C106.942 114.719 106.214 116.07 106.14 116.166C105.188 117.394 103.965 118.64 102.833 119.692C102.024 120.443 101.38 121.256 100.633 122.026C97.8197 124.929 96.1379 128.836 93.7498 132.066C92.3576 133.949 90.4506 134.71 88.686 136.049C88.2348 136.391 87.1959 137.279 86.6605 137.436C85.0978 137.897 89.9642 137.389 91.5028 136.849C93.4472 136.166 95.3396 135.392 97.1995 134.514C97.559 134.345 99.6647 134.073 98.4813 134.531C95.1357 135.825 92.2987 138.717 88.5278 138.922C85.2947 139.098 82.7858 142.271 79.6978 142.448C78.243 142.531 77.4023 143.595 76.2797 144.276C75.5589 144.714 75.0629 145.572 74.4124 146.121C73.6786 146.74 72.8529 147.01 72.1496 147.574C71.4479 148.137 69.6385 149.206 68.7315 149.206C67.4762 149.206 66.0476 148.842 64.8862 148.913C64.1069 148.96 64.8397 152.618 64.8862 153.026C64.947 153.56 70.0085 153.584 70.7254 153.173C71.6919 152.619 72.994 150.494 72.1337 149.353C70.5702 147.28 67.3344 145.582 64.8703 145.37C63.6951 145.269 62.3605 144.968 61.2466 144.57C60.5056 144.306 59.5806 144.397 58.9046 144.048C58.3381 143.756 57.4448 143.408 56.974 142.97C56.4724 142.505 57.7641 142.742 58.1133 142.742C62.4746 142.742 66.8429 142.448 71.2159 142.448C73.4859 142.448 75.7772 142.614 78.0046 142.154C79.6815 141.808 81.1029 141.133 82.7044 140.538C84.9285 139.712 86.4674 137.869 88.2429 136.343C90.0242 134.811 92.0211 133.555 93.6707 131.853C96.1097 129.337 98.529 125.249 99.9846 121.977C101.429 118.731 103.453 117.291 106.536 116.068C108.643 115.232 110.753 113.767 112.866 112.77C113.729 112.363 114.57 112.367 115.445 112.166C116.1 112.016 116.725 111.478 117.36 111.236C117.737 111.091 119.929 109.895 118.578 110.86C117.026 111.969 115.556 113.128 114.337 114.664C114.241 114.785 113.51 116.166 113.657 116.166C113.984 116.166 115.175 115.406 115.603 115.268C116.99 114.821 120.686 114.298 121.221 112.705C121.689 111.31 121.797 109.949 122.202 108.591C122.824 106.507 121.476 106.012 119.718 106.012C118.032 106.012 117.007 104.277 115.999 103.237C115.633 102.86 114.9 102.171 114.448 101.963C113.838 101.684 110.659 105.247 110.065 105.702C108.981 106.53 107.951 107.066 106.694 107.546C105.501 108.002 104.658 109.292 103.482 109.832C102.84 110.126 99.9611 112.81 101.061 110.942C101.534 110.138 101.687 109.177 101.978 108.297C102.677 106.187 103.617 104.145 104.463 102.094C105.473 99.6445 105.903 97.7951 105.903 95.1398C105.903 91.913 105.903 88.6862 105.903 85.4594C105.903 84.5856 106.126 83.8016 105.333 83.3209C103.655 82.3023 104.375 77.7027 105.112 76.334C105.727 75.1912 106.928 73.4539 108.023 72.8079C109.663 71.8413 105.888 70.3188 105.333 70.0328C103.608 69.1431 101.469 69.7038 100.491 71.4693C97.6928 76.521 97.2267 83.4695 98.4338 89.1977C98.9967 91.8685 99.7895 94.7705 99.9213 97.4905C99.9276 97.6208 99.9534 99.6303 99.6365 98.6495C98.8355 96.1706 99.4555 93.1931 99.2092 90.6016C98.7818 86.1037 98.8685 81.5174 98.0699 77.0686C97.7048 75.0348 97.2421 72.8079 94.7942 72.8079C94.2294 72.8079 93.0505 72.215 92.6579 72.71C92.1715 73.3232 91.4211 74.9119 91.3762 75.7463C91.2924 77.3023 91.3762 78.8891 91.3762 80.4478C91.3762 82.9274 91.3568 85.2398 92.4522 87.4999C93.1458 88.931 94.4299 89.8304 95.7595 90.5689C97.3146 91.4328 98.421 87.4809 98.4813 86.4552C98.9061 79.2246 92.263 72.562 86.1858 70.3919C85.5556 70.1668 84.4952 69.8663 83.9862 69.4288C83.6863 69.1709 83.1861 69.2818 82.8152 69.2818C81.8453 69.2818 81.2264 68.8921 80.489 68.2697C77.8253 66.0215 76.6188 63.662 75.2828 60.6299C74.7945 59.5217 74.4528 57.1803 73.2889 56.6467C72.757 56.4028 71.9085 55.7872 71.3742 55.7652C70.6189 55.734 69.8722 55.8533 69.1429 55.6183C67.261 55.0116 65.9563 55.2804 65.0128 56.8099C64.235 58.0708 64.3165 59.9985 64.3165 61.4787C64.3165 67.2289 71.0981 66.7623 74.8555 68.2697C77.3075 69.2534 79.3837 70.7432 81.6758 72.0733C82.6802 72.6561 83.6439 73.3234 84.6033 73.9833C86.1096 75.0192 85.9642 77.2612 85.9642 78.9786C85.9642 81.2585 81.8131 80.5848 80.8371 79.2071C78.8994 76.4716 77.2944 74.1083 73.7795 73.9833C71.8671 73.9153 69.2963 73.4529 67.8611 72.057C66.206 70.4472 65.6505 68.5445 63.6044 67.3719C62.9536 66.9989 59.1894 65.7891 59.1894 67.078C59.1894 68.9129 60.4117 70.6294 61.8162 71.6326C63.571 72.8858 66.4462 72.6467 67.9561 74.0486C70.0916 76.0313 63.3102 76.0938 62.7499 76.1871C59.5832 76.714 55.7355 76.7055 53.0654 78.848C51.4079 80.1778 50.1667 82.7889 48.2231 83.68C47.5794 83.9751 47.386 84.2677 46.6565 84.2677C45.2477 84.2677 46.4162 81.0023 46.8464 80.3988C49.0735 77.2742 51.9834 75.7506 54.9168 73.6241C56.2262 72.675 57.3396 71.7778 58.4773 70.6041C59.2858 69.77 54.895 71.1386 54.4104 71.404C52.2045 72.6121 49.656 74.0498 47.0996 74.2608C46.1268 74.3411 45.3772 74.3908 44.5202 74.5873C39.4413 75.7516 38.2735 66.4237 32.9209 68.335C30.8705 69.0672 30.0273 70.4269 28.9965 72.1549C28.3222 73.2853 29.6227 74.4265 30.12 75.4525C30.8812 77.0229 31.652 78.5805 32.4146 80.1539C33.2263 81.8287 34.5232 83.2634 35.5478 84.7901C36.0611 85.555 42.9103 80.5585 39.0924 77.5094C38.0815 76.702 36.1 75.2097 34.9781 76.334C34.029 77.2851 33.5539 78.8175 33.5539 80.1539C33.5539 82.6883 33.2691 85.1968 33.2691 87.7285C33.2691 88.8898 33.3003 89.9597 32.9842 91.0913C32.6633 92.2403 32.1448 93.4617 31.4335 94.4052C30.8811 95.1378 30.7061 96.5828 30.2941 97.4579C29.2662 99.641 27.8895 101.09 26.8127 103.008C26.1316 104.222 25.3943 105.376 24.629 106.534C23.7939 107.798 21.2487 108.277 19.9766 109.146C19.3394 109.581 17.2943 108.791 17.0491 107.906C16.5876 106.239 19.525 104.3 20.5779 103.596C21.7464 102.815 22.491 102.459 23.727 102.176C23.9302 102.129 26.3064 101.546 26.3064 101.604C26.3064 101.773 25.99 101.701 25.8474 101.784C25.4917 101.99 25.1991 102.291 24.8822 102.551C23.6541 103.56 22.1664 104.434 20.7362 105.098C18.8434 105.976 14.4697 106.063 14.4697 108.722C14.4697 110.322 15.1257 112.367 17.0333 112.476C18.5321 112.562 20.0587 112.476 21.559 112.476C23.0607 112.476 23.6081 111.584 24.8663 111.007C25.1204 110.891 26.3872 109.617 26.4329 110.419C26.4848 111.328 26.0352 112.005 25.4202 112.64C24.7795 113.301 23.5846 114.115 23.5846 115.121C23.5846 116.017 22.9485 115.674 22.4452 115.415" stroke="#006CDC" stroke-width="10" stroke-linecap="round"/>
<path d="M32.9844 138.628C32.9844 140.749 36.8712 142.295 38.5229 142.432C41.6388 142.689 45.0688 142.504 48.0808 143.493C49.5007 143.959 51.1912 144.23 52.2901 145.321C53.4704 146.494 54.1076 148.015 55.2018 149.206C55.7935 149.851 56.2732 150.491 56.6893 151.263C57.0706 151.971 57.215 153.121 57.702 153.679C58.8466 154.991 58.6015 157.959 60.2023 158.903C61.7843 159.836 62.6242 161.8 64.19 162.723C65.6891 163.607 65.4312 165.368 67.5132 165.368C69.4805 165.368 71.2842 165.42 73.1466 164.78" stroke="#006CDC" stroke-width="10" stroke-linecap="round"/>
<path d="M70.5831 59.2913C70.5831 60.4165 69.8665 62.5993 68.874 63.1112" stroke="#006CDC" stroke-width="10" stroke-linecap="round"/>
<path d="M37.5417 88.6753C37.5417 89.8217 37.4965 92.1781 38.6811 92.7891" stroke="#006CDC" stroke-width="10" stroke-linecap="round"/>
<path d="M111.978 146.428C110.922 146.428 110.347 146.212 109.837 147.134C109.149 148.375 109.364 149.664 110.967 148.637C112.542 147.629 114.202 146.379 113.57 144.096C113.217 142.824 110.395 145.73 110.372 146.765C110.358 147.435 110.372 148.106 110.372 148.775C110.372 149.538 110.204 149.718 110.536 148.883C111.002 147.706 111.395 146.589 111.77 145.385C112.138 144.206 111.585 145.819 111.503 146.152C111.406 146.538 111.352 147.732 111.458 147.348C111.627 146.738 111.978 144.888 111.978 145.523C111.978 146.59 111.71 147.841 111.384 148.852C111.19 149.45 111.341 147.572 111.443 147.256" stroke="#006CDC" stroke-linecap="square"/>
<path d="M109.569 96.7216C109.569 98.3558 110.728 101.408 112.038 102.459C112.313 102.68 112.238 100.815 112.231 100.71C112.173 99.8349 111.947 98.3763 111.294 97.7035C110.275 96.6519 109.837 97.7476 109.837 98.7774C109.837 99.2197 110.581 101.32 110.64 100.526C110.713 99.5456 110.988 98.532 111.175 97.5654C111.252 97.1725 111.321 95.6571 111.19 96.7369C111.128 97.2525 110.851 100.85 110.908 99.2683C110.917 98.9973 111.175 97.279 111.175 98.1637C111.175 99.1188 111.198 99.9664 110.908 100.864" stroke="#006CDC" stroke-linecap="square"/>
<path d="M35.4927 162.864C35.9682 167.279 35.7708 171.719 35.7708 176.205" stroke="white" stroke-linecap="square"/>
<g clip-path="url(#clip0_81_36)">
<path d="M155.654 21.3611C155.022 21.5707 154.47 21.9799 154.077 22.5312C153.683 23.0824 153.468 23.7475 153.461 24.4321L153.359 34.9057C152.265 35.764 151.218 36.679 150.221 37.655L140.185 36.0724C139.529 35.969 138.858 36.0811 138.267 36.3928C137.676 36.7044 137.196 37.1999 136.893 37.8091L131.125 49.4162C130.822 50.0253 130.713 50.7174 130.813 51.3941C130.912 52.0708 131.216 52.698 131.68 53.1869L138.773 60.6531C138.588 62.0646 138.476 63.4822 138.441 64.9061L130.269 71.102C129.735 71.5074 129.337 72.0762 129.133 72.7278C128.929 73.3793 128.929 74.0804 129.133 74.732L133.011 87.1485C133.214 87.8004 133.611 88.3698 134.145 88.7759C134.68 89.182 135.324 89.4044 135.988 89.4115L146.16 89.5168C146.988 90.6381 147.871 91.7083 148.812 92.731L147.272 103.107C147.171 103.784 147.28 104.476 147.582 105.085C147.884 105.694 148.364 106.19 148.955 106.502L160.209 112.459C160.799 112.771 161.47 112.884 162.126 112.781C162.782 112.678 163.39 112.365 163.864 111.886L171.115 104.551C172.475 104.74 173.839 104.852 175.21 104.889L181.23 113.341C181.623 113.893 182.174 114.303 182.806 114.514C183.438 114.724 184.117 114.724 184.749 114.514L196.785 110.514C197.417 110.304 197.969 109.894 198.362 109.343C198.756 108.792 198.972 108.127 198.978 107.442L199.077 96.9361C200.161 96.0849 201.199 95.1753 202.189 94.2088L212.255 95.8018C212.91 95.9053 213.581 95.7931 214.172 95.4815C214.763 95.1699 215.244 94.6747 215.546 94.0656L221.312 82.452C221.615 81.8429 221.724 81.1511 221.625 80.4744C221.525 79.7978 221.222 79.1705 220.757 78.6816L213.654 71.2052C213.84 69.7984 213.948 68.3856 213.984 66.9663L222.168 60.7665C222.703 60.3611 223.1 59.7923 223.304 59.1407C223.508 58.4892 223.508 57.7878 223.305 57.1362L219.427 44.72C219.223 44.0682 218.826 43.4988 218.292 43.0926C217.758 42.6865 217.113 42.4641 216.449 42.4571L206.291 42.3539C205.459 41.2274 204.572 40.1503 203.628 39.1234L205.166 28.7614C205.266 28.0848 205.157 27.3928 204.855 26.7834C204.553 26.174 204.073 25.6779 203.482 25.3657L192.231 19.4157C191.64 19.1034 190.969 18.9906 190.313 19.0933C189.657 19.1961 189.05 19.5093 188.576 19.9883L181.342 27.2979C179.97 27.1066 178.592 26.9945 177.208 26.9589L171.209 18.5332C170.816 17.9814 170.265 17.5709 169.633 17.3604C169.002 17.15 168.322 17.1502 167.69 17.3605L155.654 21.3611ZM159.762 26.8482L167.461 24.2892L172.952 32.0068C173.253 32.4297 173.649 32.7717 174.105 33.0033C174.561 33.2349 175.065 33.3493 175.574 33.3372C177.72 33.287 179.866 33.4605 181.977 33.859C182.475 33.9539 182.987 33.924 183.472 33.7721C183.956 33.6202 184.398 33.3505 184.76 32.9858L191.376 26.2964L198.572 30.1015L197.163 39.5905C197.086 40.1078 197.131 40.6367 197.293 41.1324C197.456 41.628 197.732 42.0761 198.098 42.4386C199.638 43.963 201.028 45.6403 202.24 47.4529C202.527 47.8839 202.91 48.2374 203.357 48.4836C203.804 48.7298 204.302 48.8616 204.809 48.8676L214.109 48.9619L216.589 56.9038L209.098 62.5794C208.69 62.8895 208.36 63.2962 208.137 63.7654C207.913 64.2346 207.802 64.7525 207.813 65.2752C207.856 67.4803 207.679 69.6838 207.292 71.8527C207.2 72.3674 207.229 72.8973 207.377 73.3978C207.526 73.8982 207.789 74.3546 208.144 74.7281L214.648 81.5738L210.961 89.0027L201.741 87.5433C201.24 87.4646 200.727 87.5117 200.247 87.6804C199.767 87.849 199.333 88.1342 198.982 88.5122C197.509 90.0935 195.891 91.5195 194.141 92.7648C193.723 93.0609 193.381 93.4564 193.142 93.9177C192.904 94.3791 192.776 94.8927 192.77 95.4156L192.68 105.035L184.981 107.594L179.468 99.8503C179.168 99.4279 178.774 99.0863 178.319 98.8544C177.863 98.6225 177.361 98.507 176.853 98.5179C174.721 98.5649 172.587 98.3928 170.489 97.9965C169.991 97.9017 169.478 97.9315 168.994 98.0835C168.51 98.2354 168.068 98.505 167.706 98.8697L161.066 105.587L153.868 101.776L155.279 92.2728C155.356 91.7556 155.311 91.2267 155.149 90.731C154.986 90.2353 154.71 89.7876 154.344 89.4251C152.808 87.9048 151.422 86.2277 150.212 84.4207C149.925 83.9911 149.542 83.639 149.095 83.3939C148.648 83.1488 148.151 83.0177 147.645 83.0121L138.331 82.9156L135.851 74.9737L143.336 69.3004C143.746 68.9907 144.077 68.5837 144.301 68.114C144.526 67.6444 144.638 67.1259 144.628 66.6023C144.582 64.3937 144.752 62.1873 145.139 60.0146C145.231 59.4999 145.201 58.9699 145.053 58.4695C144.905 57.969 144.642 57.5127 144.286 57.1392L137.792 50.3037L141.481 42.8809L150.671 44.3298C151.173 44.4085 151.685 44.3614 152.166 44.1928C152.646 44.0241 153.08 43.7389 153.431 43.3609C154.91 41.771 156.538 40.3367 158.297 39.0864C158.715 38.7903 159.058 38.3951 159.296 37.9338C159.535 37.4725 159.663 36.9585 159.668 36.4356L159.762 26.8482Z" fill="#006CDC" stroke="#006CDC" stroke-width="0.00799685" stroke-linecap="round" stroke-linejoin="round"/>
<path d="M169.416 44.1911C157.819 48.0458 151.414 60.9719 155.151 72.9357C158.887 84.8993 171.395 91.5139 182.993 87.6592C194.59 83.8044 201.024 70.8937 197.287 58.9301C193.551 46.9664 181.013 40.3364 169.416 44.1911ZM171.356 50.4008C179.7 47.6271 188.579 52.3224 191.268 60.9309C193.956 69.5394 189.398 78.6758 181.053 81.4495C172.708 84.2231 163.859 79.5434 161.17 70.9349C158.481 62.3264 163.011 53.1745 171.356 50.4008Z" fill="#006CDC" stroke="#006CDC" stroke-width="0.00799685" stroke-linecap="round" stroke-linejoin="round"/>
<path d="M144.641 48.4193C144.641 48.1409 144.733 47.7073 144.451 47.5377C143.478 46.9521 143.859 49.0969 143.945 49.464C144.138 50.2904 144.321 51.2887 144.926 51.9127C145.289 52.2869 145.668 52.197 145.433 51.6515C145 50.6473 143.953 47.8316 142.647 47.8316C142.328 47.8316 141.124 49.166 141.382 49.4314C142.06 50.1309 144.585 49.4949 145.338 49.3008C146.879 48.9032 148.519 48.1254 150.053 48.1254" stroke="#006CDC" stroke-width="10" stroke-linecap="round"/>
<path d="M158.314 46.6563C159.856 44.8657 161.824 42.3683 164.169 41.6774C165.129 41.3942 164.662 41.3569 164.01 41.7264C162.29 42.7026 160.684 43.8339 158.915 44.7464C157.437 45.5088 156.299 47.1973 155.18 48.4194C154.319 49.3597 152.843 50.8108 152.395 52.0108C151.735 53.7824 149.926 54.8114 149.199 56.5C147.928 59.4494 144.748 61.2204 144.056 64.4337C143.881 65.2446 143.787 65.8972 143.787 66.7681C143.787 68.5324 144.727 67.2066 145.496 66.2783C147.542 63.8087 150.148 60.8538 150.338 57.5284C150.383 56.7365 151.193 54.8395 151.193 56.7938C151.193 58.9832 151.423 61.2621 150.908 63.3889C150.03 67.0118 150.623 71.3133 150.623 75.0935C150.623 76.6956 150.681 74.7321 150.338 73.9835C149.814 72.8391 149.011 72.8081 147.917 72.8081C147.131 72.8081 146.345 72.8081 145.559 72.8081C144.662 72.8081 144.108 73.633 143.375 74.1141C142.067 74.9729 141.538 76.0404 139.941 76.0404C138.448 76.0404 138.752 77.938 139.657 78.6849C143.777 82.0857 148.482 78.7884 153.06 80.1378C154.479 80.5561 155.465 81.5707 156.541 82.5702C157.448 83.4123 157.443 84.9534 157.965 86.0309C158.66 87.4635 157.416 86.2076 156.826 85.7371C155.787 84.9085 154.768 84.0761 153.756 83.2558C153.162 82.7746 152.724 81.9989 152.047 81.6886C151.111 81.2594 151.587 82.6179 151.905 82.9456C153.733 84.8321 155.66 86.2688 156.826 88.6755C157.501 90.0685 157.459 91.5343 157.459 93.0831C157.459 95.0939 156.776 98.8129 157.744 100.56C158.892 102.633 161.654 101.975 163.662 101.898C165.364 101.833 164.865 99.5412 164.865 98.3722C164.865 96.9895 165.098 91.0262 167.144 91.0262" stroke="#006CDC" stroke-width="10"/>
<path d="M158.029 50.1825C157.926 52.1013 156.211 53.6761 155.402 55.1777C154.585 56.6952 153.657 58.1623 153.123 59.8139C152.506 61.7252 152.496 65.2879 152.965 67.2252C153.493 69.4037 154.35 71.9768 155.323 73.9835C156.804 77.0389 159.023 79.5199 159.754 82.913C159.975 83.9411 161.175 85.4562 161.874 86.1779C163.506 87.8609 165.401 90.2741 167.429 91.3201" stroke="#006CDC" stroke-width="10"/>
<path d="M166.004 91.9077C170.087 91.9077 174.17 91.9077 178.252 91.9077C179.327 91.9077 180.37 91.9744 181.386 92.3485C182.247 92.6656 183.062 93.563 183.949 93.6708C185.767 93.8913 187.242 97.514 187.367 99.1884C187.415 99.8342 188.237 101 188.665 101.441C189.484 102.286 188.628 102.893 188.507 103.955C188.469 104.281 187.014 104.543 186.655 104.543C185.67 104.543 185.122 104.491 184.456 103.727C183.27 102.368 182.107 101.134 180.531 100.364C179.328 99.7757 178.212 99.5054 177.256 98.5191C176.654 97.8989 175.79 97.3251 174.993 97.1315C172.729 96.5821 170.761 97.4907 168.568 97.4907" stroke="#006CDC" stroke-width="10"/>
<path d="M189.868 98.071C189.868 96.6122 189.784 95.1318 190.133 93.7053C190.582 91.8735 191.394 90.1897 192.053 88.4403C192.617 86.9437 193.284 86.0013 194.36 84.8772C194.92 84.292 195.471 83.6967 196.031 83.1184C196.156 82.99 196.518 82.6511 196.478 82.8281C196.45 82.9539 196.226 83.2067 196.175 83.2778C195.594 84.0761 194.965 84.8386 194.315 85.5773C192.199 87.9827 189.587 90.0047 186.69 91.309C186.105 91.5727 185.149 91.829 184.682 92.3108C184.446 92.5536 184.61 92.2709 184.875 92.1799C185.63 91.9203 186.406 91.7669 187.154 91.4684C188.476 90.9402 189.727 90.2181 190.977 89.5332C191.965 88.9922 192.904 88.2583 193.918 87.8028C194.919 87.3534 195.845 86.7848 196.82 86.2888C197.23 86.0803 197.61 86.0782 198.012 85.9302C198.79 85.6438 199.485 85.1346 200.23 84.7633C200.911 84.4242 201.459 84.0133 202.084 83.5453C202.571 83.1802 203.109 82.917 203.657 82.663C203.802 82.5957 203.904 82.6356 203.971 82.498" stroke="#006CDC" stroke-width="10"/>
<path d="M207.149 87.4155C207.555 87.3691 208.232 86.6629 208.517 86.3682C208.787 86.0907 208.907 85.7505 209.086 85.4177C209.324 84.9749 209.05 84.5422 208.628 84.4216C207.077 83.9792 206.119 84.9874 204.771 85.56C204.292 85.7635 203.946 85.8018 203.574 86.1861C203.509 86.2528 202.94 86.9448 202.884 86.7439C202.788 86.3968 205.76 85.6855 206.057 85.5714C206.958 85.2251 207.825 84.7946 208.727 84.4501C209.132 84.2955 209.634 83.9321 210.073 83.9321C210.919 83.9321 210.735 82.0329 210.603 81.4732C210.342 80.3652 209.859 79.652 208.716 79.4469C208.016 79.3212 207.303 79.5266 206.603 79.5266C206.06 79.5266 205.643 79.4407 205.24 79.8567C204.53 80.5896 201.736 83.8296 204.368 83.8296C205.406 83.8296 205.823 82.8986 205.516 81.9399C205.01 80.3608 203.782 78.9325 202.172 78.6557C200.715 78.4052 198.926 78.6321 197.935 79.9364C197.536 80.4612 197.72 81.3353 198.271 81.6724C199.863 82.6456 201.943 80.5202 202.658 79.2647C203.621 77.5724 202.937 75.5765 201.891 74.0851C200.939 72.7279 199.527 75.6023 199.226 76.4074C199.118 76.697 199.036 76.961 199.231 77.2327C199.832 78.0693 201.211 78.6622 202.139 78.9403C203.812 79.4412 205.836 79.612 206.344 77.4889C206.805 75.5603 207.036 71.6691 204.567 71.1253C203.594 70.9111 202.533 71.0229 201.543 71.0229C200.142 71.0229 199.89 73.3078 199.822 74.4039C199.692 76.4882 202.434 77.5462 204.098 77.301C205.1 77.1533 205.42 76.3643 205.538 75.417C205.724 73.9321 205.826 72.159 205.086 70.8066C204.645 70.0024 203.797 70.2032 203.028 70.2032C202.25 70.2032 201.472 70.2032 200.694 70.2032" stroke="#006CDC" stroke-width="10"/>
<path d="M204.666 56.3721C204.017 57.0421 203.767 58.0065 203.596 58.9107C203.49 59.4678 203.466 60.0293 203.474 60.5955C203.484 61.2165 203.837 61.3659 204.407 61.4834C206.466 61.9084 208.885 61.6145 209.334 59.1497C209.749 56.8703 209.901 53.4064 207.839 51.8869C205.937 50.4858 203.604 51.6817 202.018 52.9911C200.727 54.0561 199.549 55.5927 199.722 57.3966C199.881 59.0526 201.685 59.6906 203.049 59.9466C204.082 60.1403 205.252 60.2812 206.288 60.0377C207.35 59.7881 207.855 58.9641 208.219 57.9658C208.733 56.5578 209.114 53.8396 207.281 53.2415C205.4 52.6278 203.198 53.365 201.753 54.636C200.297 55.9165 200.197 58.1976 200.197 60.0377C200.197 60.6006 199.976 61.5506 200.699 61.6997C201.476 61.8599 202.417 61.946 203.077 61.4151C203.524 61.0556 205.198 59.1432 204.545 58.4439C203.979 57.839 202.749 58.3791 202.233 58.7342C201.179 59.459 200.609 60.1503 200.594 61.4948C200.59 61.8381 200.534 62.2617 200.616 62.599C200.761 63.1977 202.193 62.7495 202.514 62.6787C205.684 61.9799 208.14 59.8669 209.361 56.7876C209.785 55.7202 210.032 54.5724 210.167 53.4294C210.233 52.872 210.34 51.9685 209.985 51.477C209.754 51.1578 209.104 51.0558 208.738 51.0558C208.235 51.0558 208.241 52.1082 208.241 52.4276C208.241 53.0978 208.183 53.5344 208.859 53.8335C209.547 54.1374 210.684 54.3564 211.364 53.9075C211.999 53.4882 212.13 52.5998 212.115 51.8869C212.105 51.4514 211.749 51.4011 211.397 51.477C210.876 51.5895 210.484 52.1406 210.432 52.678C210.379 53.2253 210.206 53.8793 210.349 54.4254C210.528 55.1095 211.459 55.4064 212.026 55.5468C212.398 55.6388 213.777 56.0634 213.946 55.4898C214.184 54.6863 213.911 53.9432 213.306 53.4237C212.402 52.6465 211.834 52.8176 210.928 53.5546C210.516 53.8902 209.334 54.6165 209.334 55.2451" stroke="#006CDC" stroke-width="10"/>
<path d="M164.145 38.4426C164.145 37.1961 164.297 35.725 163.643 34.6233C163.377 34.1756 163.086 33.8322 162.562 33.8322C162.231 33.8322 162.106 34.4383 162.015 34.703C161.699 35.6237 161.606 36.6588 162.6 37.2132C163.991 37.9882 166.229 37.5992 167.058 36.1658C167.607 35.2179 167.679 33.8446 167.202 32.8532C166.047 30.4503 162.812 31.9631 161.486 33.3313C160.279 34.5759 159.054 37.6502 160.89 38.9378C161.793 39.571 163.326 39.6055 164.333 39.2793C165.77 38.8137 166.682 37.3412 167.158 35.9496C167.663 34.4703 168.089 32.4547 167.699 30.8895C167.427 29.802 166.475 29.6857 165.536 29.586C164.838 29.5119 164.073 29.4627 163.373 29.5519C162.328 29.6849 162.208 30.9986 162.026 31.8628C161.924 32.3482 161.522 33.5647 161.883 34.0371C162.335 34.6276 163.556 34.6271 164.2 34.6746C164.936 34.7288 165.531 34.7384 165.927 34.0029C166.443 33.0459 166.557 31.8001 166.523 30.7244C166.491 29.6995 165.562 27.9057 164.3 28.6241C163.723 28.952 163.616 29.7648 163.571 30.3715C163.519 31.09 163.351 32.2797 163.616 32.967C163.945 33.8213 165.543 33.9293 166.253 33.9915C167.098 34.0656 168.716 34.169 169.144 33.1491C169.716 31.7866 168.895 29.5881 168.537 28.2655C168.332 27.5087 168.132 26.1838 167.5 25.6358C166.495 24.764 164.688 26.0025 164.245 26.9905C163.916 27.7213 163.947 28.5325 163.947 29.3185C163.947 30.2305 163.897 31.2685 164.465 32.0335C165.272 33.1204 168.439 34.8383 169.475 33.2687C170.325 31.9806 168.425 32.1868 167.919 33.0125C167.103 34.3438 166.981 36.1381 168.537 36.9058C169.956 37.6061 172.175 37.8887 173.475 36.7237C173.834 36.4023 174.176 35.8539 174.176 35.3462C174.176 34.633 174.024 36.7664 173.878 37.4636C173.544 39.0661 173.416 40.945 175.296 41.4992C176.688 41.9093 178.441 41.8057 179.815 41.3967C180.508 41.1905 182.099 40.7866 181.983 39.7574C181.856 38.6162 180.285 37.7145 179.462 37.1562C178.494 36.4998 177.371 35.9878 176.184 36.1089C174.279 36.3036 173.867 38.9104 173.702 40.4689C173.62 41.2353 173.879 41.4452 174.562 41.7439C176.088 42.4106 178.013 42.8497 179.672 42.7002C181.459 42.539 182.525 40.6059 181.779 38.8752C180.859 36.739 177.703 38.6437 176.582 39.4102C175.241 40.3272 174.227 41.1977 173.133 42.3814C172.616 42.941 172.072 43.4619 171.445 43.8215C170.948 44.1062 169.935 44.6113 169.37 44.4817C169.153 44.4318 169.192 44.0383 169.21 43.8727C169.24 43.5927 170.127 43.4305 170.325 43.3376C171.243 42.907 172.055 42.4546 173.062 42.2562C174.046 42.062 175.072 42.131 176.069 42.131C177.438 42.131 178.747 42.2215 180.074 42.5977C181.365 42.9635 182.516 43.5157 183.666 44.18C184.983 44.9406 186.853 45.0539 188.312 44.8517C189.047 44.7499 189.764 44.2768 190.387 43.8727C190.557 43.762 191.222 43.1698 190.64 43.1555C190.521 43.1526 189.985 43.2413 189.967 43.0531C189.897 42.2906 189.955 41.5205 189.868 40.7535C189.659 38.9123 188.791 36.496 186.662 36.496C185.671 36.496 186.438 39.0582 186.651 39.507C187.592 41.4833 190.462 40.9043 191.656 39.5468C193.168 37.8263 193.128 33.9861 190.685 33.1605C189.762 32.8488 188.177 32.4674 187.937 33.7411C187.842 34.2447 187.772 35.017 188.158 35.4145C188.924 36.2052 190.384 36.1377 191.358 36.0122C192.558 35.8574 193.963 35.3241 194.514 34.1168C194.972 33.1114 194.97 31.6044 194.574 30.5764C194.079 29.2887 192.195 29.0243 191.12 29.7397C190.068 30.4401 190.785 31.5889 191.236 32.5003C191.8 33.637 193.218 33.8973 194.293 33.1947C194.927 32.78 195.558 30.1534 194.674 29.7966C194.03 29.5369 193.34 29.8944 192.881 30.3373C191.783 31.3956 190.917 32.7821 190.282 34.1794C189.379 36.1647 189.714 38.6945 190.762 40.5714C191.282 41.5037 192.49 41.7452 193.421 42.0057C193.937 42.15 195.139 42.7029 195.683 42.3928C196.065 42.1753 196.033 40.9456 196.026 40.5714C196.007 39.6222 195.404 39.1513 194.514 39.0801C192.518 38.9203 191.457 41.2823 191.457 43.0531C191.457 44.8803 192.818 46.823 194.602 47.1911C195.866 47.4518 199.062 47.5833 198.332 45.4436C197.666 43.492 195.548 41.2278 193.78 43.5255C192.832 44.7572 192.547 47.3851 193.449 48.7336C194.214 49.8786 195.923 50.2194 197.173 50.407C198.073 50.5421 198.692 48.2766 198.244 47.709C197.785 47.1282 196.741 47.3825 196.224 47.6863C195.321 48.2175 194.363 49.2658 194.183 50.3501C194.01 51.3904 194.081 52.6447 194.238 53.6855C194.345 54.3969 194.583 54.8203 195.132 55.2451" stroke="#006CDC" stroke-width="10"/>
<path d="M192.285 98.9307C192.477 98.7078 193.402 97.55 193.088 97.55" stroke="#006CDC" stroke-linecap="square"/>
<path d="M207.543 88.4371C207.495 88.0428 206.205 87.2609 206.205 87.3325C206.205 88.1146 206.003 88.8852 206.74 89.2655" stroke="#006CDC" stroke-linecap="square"/>
<path d="M159.661 50.6856C159.877 50.6608 160.392 50.3435 160.574 50.1971C160.849 49.9767 161.098 49.7294 161.381 49.5193C161.838 49.1797 161.866 48.6511 162.444 48.353" stroke="#006CDC" stroke-linecap="square"/>
</g>
<line x1="25.2285" y1="120.067" x2="25.2285" y2="216.563" stroke="#006CDC" stroke-width="23"/>
<path d="M219.68 217.596H194.976L164.64 171.26V217.596H142.752V126.204H164.64V170.492L194.336 126.204H217.888L187.04 169.98L219.68 217.596Z" fill="#006CDC"/>
<defs>
<clipPath id="clip0_81_36">
<rect width="101.508" height="104.104" fill="white" transform="matrix(0.948953 -0.315418 0.298129 0.954525 112.559 32.259)"/>
</clipPath>
</defs>
</svg>
